<svg xmlns="http://www.w3.org/2000/svg" width="35" height="35" viewBox="0 0 35 35">
  <g id="Berita" transform="translate(215.927 -1002.381)">
    <path id="Path_1322" data-name="Path 1322" d="M-215.927,1010.854v23.625a2.905,2.905,0,0,0,2.9,2.9h29.2a2.883,2.883,0,0,0,1.128-.228,2.915,2.915,0,0,0,.716-.435q.107-.089.206-.187a2.9,2.9,0,0,0,.792-1.467,2.915,2.915,0,0,0,.059-.584v-29.2a2.906,2.906,0,0,0-2.9-2.9H-207.4a2.906,2.906,0,0,0-2.9,2.9v2.669h-2.718A2.905,2.905,0,0,0-215.927,1010.854Zm33.417,9.361h0v14.264a1.32,1.32,0,0,1-.806,1.215,1.3,1.3,0,0,1-.513.1h-25.215a2.881,2.881,0,0,0,.32-1.319v-29.2a1.321,1.321,0,0,1,1.319-1.319h23.576a1.321,1.321,0,0,1,1.319,1.319Zm-31.834-6.751h0v-2.61a1.32,1.32,0,0,1,1.319-1.319h2.718v24.944a1.32,1.32,0,0,1-1.319,1.319h-1.4a1.32,1.32,0,0,1-1.319-1.319Z" transform="translate(0 0)" fill="#fff"/>
    <path id="Path_1323" data-name="Path 1323" d="M-176.657,1028.91h6.64a.792.792,0,0,0,.792-.791v-8.442a.792.792,0,0,0-.792-.792h-6.64a.792.792,0,0,0-.791.792v8.442A.791.791,0,0,0-176.657,1028.91Zm.792-8.443h5.057v6.859h-5.057Z" transform="translate(-28.637 -12.283)" fill="#fff"/>
    <path id="Path_1324" data-name="Path 1324" d="M-134.191,1020.468h8.493a.791.791,0,0,0,.791-.791.792.792,0,0,0-.791-.792h-8.493a.792.792,0,0,0-.791.792A.791.791,0,0,0-134.191,1020.468Z" transform="translate(-60.242 -12.283)" fill="#fff"/>
    <path id="Path_1325" data-name="Path 1325" d="M-134.191,1036.972h8.493a.791.791,0,0,0,.791-.792.791.791,0,0,0-.791-.791h-8.493a.791.791,0,0,0-.791.791A.791.791,0,0,0-134.191,1036.972Z" transform="translate(-60.242 -24.566)" fill="#fff"/>
    <path id="Path_1326" data-name="Path 1326" d="M-134.191,1053.475h8.493a.791.791,0,0,0,.791-.791.791.791,0,0,0-.791-.792h-8.493a.791.791,0,0,0-.791.792A.791.791,0,0,0-134.191,1053.475Z" transform="translate(-60.242 -36.848)" fill="#fff"/>
    <path id="Path_1327" data-name="Path 1327" d="M-157.276,1068.4h-19.345a.791.791,0,0,0-.791.791.792.792,0,0,0,.791.792h19.345a.792.792,0,0,0,.791-.792A.791.791,0,0,0-157.276,1068.4Z" transform="translate(-28.664 -49.13)" fill="#fff"/>
    <path id="Path_1328" data-name="Path 1328" d="M-157.276,1084.585h-19.345a.791.791,0,0,0-.791.791.791.791,0,0,0,.791.792h19.345a.791.791,0,0,0,.791-.792A.791.791,0,0,0-157.276,1084.585Z" transform="translate(-28.664 -61.179)" fill="#fff"/>
    <path id="Path_1329" data-name="Path 1329" d="M-157.276,1100.774h-19.345a.791.791,0,0,0-.791.792.791.791,0,0,0,.791.792h19.345a.791.791,0,0,0,.791-.792A.791.791,0,0,0-157.276,1100.774Z" transform="translate(-28.664 -73.228)" fill="#fff"/>
    <path id="Path_1330" data-name="Path 1330" d="M-169.99,1116.963h-6.631a.791.791,0,0,0-.791.791.791.791,0,0,0,.791.792h6.631a.792.792,0,0,0,.792-.792A.791.791,0,0,0-169.99,1116.963Z" transform="translate(-28.664 -85.276)" fill="#fff"/>
  </g>
</svg>
