<?xml version="1.0" encoding="utf-8"?>
<!-- Generator: Adobe Illustrator 23.0.3, SVG Export Plug-In . SVG Version: 6.00 Build 0)  -->
<svg version="1.1" id="Layer_1" xmlns="http://www.w3.org/2000/svg" xmlns:xlink="http://www.w3.org/1999/xlink" x="0px" y="0px"
	 viewBox="0 0 72.2 67" style="enable-background:new 0 0 72.2 67;" xml:space="preserve">
<style type="text/css">
	.st0{fill:#FFFFFF;}
</style>
<g id="Contact_Us" transform="translate(1.5 1.5)">
	<g id="Path_967">
		<path class="st0" d="M10.5,53.5c-0.7,0-1.5-0.3-2.1-0.8c-0.6-0.6-0.9-1.4-0.9-2.2v-8.3H6c-4.1,0-7.5-3.4-7.5-7.5V6
			c0-4.1,3.4-7.5,7.5-7.5h37.6c4.1,0,7.5,3.4,7.5,7.5v28.6c0,4.1-3.4,7.5-7.5,7.5H22.8L12.7,52.5C12.1,53.2,11.3,53.5,10.5,53.5z
			 M6,1.5c-2.5,0-4.5,2-4.5,4.5v28.6c0,2.5,2,4.5,4.5,4.5h3c0.8,0,1.5,0.7,1.5,1.5v9.8L21,39.6c0.3-0.3,0.7-0.5,1.1-0.5h21.5
			c2.5,0,4.5-2,4.5-4.5V6c0-2.5-2-4.5-4.5-4.5H6z"/>
	</g>
	<g id="Path_968">
		<path class="st0" d="M60.2,65.5c-0.8,0-1.6-0.3-2.2-0.9L48,54.2H34.6c-4.1,0-7.5-3.4-7.5-7.5c0-0.8,0.7-1.5,1.5-1.5
			s1.5,0.7,1.5,1.5c0,2.5,2,4.5,4.5,4.5h14c0.4,0,0.8,0.2,1.1,0.5l10.5,10.9l0-9.8c0-0.8,0.7-1.5,1.5-1.5h1.5c2.5,0,4.5-2,4.5-4.5
			V21.1c0-2.5-2-4.5-4.5-4.5h-6.9c-0.8,0-1.5-0.7-1.5-1.5s0.7-1.5,1.5-1.5h6.9c4.1,0,7.5,3.4,7.5,7.5v25.6c0,4.1-3.4,7.5-7.5,7.5
			v8.3c0,0.8-0.3,1.6-0.9,2.2C61.7,65.2,60.9,65.5,60.2,65.5z"/>
	</g>
</g>
</svg>
