<svg xmlns="http://www.w3.org/2000/svg" width="35" height="35" viewBox="0 0 35 35">
  <g id="Digital" transform="translate(444.674 -1088.922)">
    <path id="Path_1312" data-name="Path 1312" d="M-420.472,1104.892a.707.707,0,0,0,.707-.707.707.707,0,0,0-.707-.707h-8.939a.707.707,0,0,0-.707.707v22.626a.707.707,0,0,0,.707.707h15.728a.707.707,0,0,0,.707-.707v-5.531a.707.707,0,0,0-.707-.707.707.707,0,0,0-.707.707v4.824H-428.7v-21.212Z" transform="translate(-10.667 -10.667)" fill="#fff"/>
    <path id="Path_1313" data-name="Path 1313" d="M-420.462,1110.807a.707.707,0,0,0-.707.707v8.342a2.654,2.654,0,0,1-2.652,2.652h-16.788a2.654,2.654,0,0,1-2.651-2.652v-26.868a2.655,2.655,0,0,1,2.651-2.652h12.244a.707.707,0,0,0,.707-.707.707.707,0,0,0-.707-.707h-12.244a4.07,4.07,0,0,0-4.065,4.066v26.868a4.07,4.07,0,0,0,4.065,4.066h16.788a4.07,4.07,0,0,0,4.066-4.066v-8.342A.707.707,0,0,0-420.462,1110.807Z" transform="translate(0 0)" fill="#fff"/>
    <path id="Path_1314" data-name="Path 1314" d="M-335.574,1174.243a1.416,1.416,0,0,0-1.414,1.414,1.415,1.415,0,0,0,1.414,1.414,1.415,1.415,0,0,0,1.414-1.414A1.416,1.416,0,0,0-335.574,1174.243Z" transform="translate(-78.916 -62.526)" fill="#fff"/>
    <path id="Path_1315" data-name="Path 1315" d="M-335.574,1196.809a1.416,1.416,0,0,0-1.414,1.414,1.416,1.416,0,0,0,1.414,1.414,1.416,1.416,0,0,0,1.414-1.414A1.416,1.416,0,0,0-335.574,1196.809Z" transform="translate(-78.916 -79.063)" fill="#fff"/>
    <path id="Path_1316" data-name="Path 1316" d="M-404.958,1201.4a.707.707,0,0,0-.707.707.707.707,0,0,0,.707.707h2.779a.707.707,0,0,0,.707-.707.707.707,0,0,0-.707-.707Z" transform="translate(-28.587 -82.427)" fill="#fff"/>
    <path id="Path_1317" data-name="Path 1317" d="M-377.864,1088.922a9.909,9.909,0,0,0-9.9,9.9,9.909,9.909,0,0,0,9.9,9.9,9.909,9.909,0,0,0,9.9-9.9A9.909,9.909,0,0,0-377.864,1088.922Zm0,18.38a8.493,8.493,0,0,1-8.483-8.483,8.493,8.493,0,0,1,8.483-8.483,8.493,8.493,0,0,1,8.483,8.483A8.493,8.493,0,0,1-377.864,1107.3Z" transform="translate(-41.707 0)" fill="#fff"/>
    <path id="Path_1318" data-name="Path 1318" d="M-359.511,1116.836a.707.707,0,0,0-.993.117l-3.629,4.6-3.629-4.6a.706.706,0,0,0-.993-.117.707.707,0,0,0-.118.993l4.184,5.308a.707.707,0,0,0,.555.269.706.706,0,0,0,.555-.269l4.184-5.308A.707.707,0,0,0-359.511,1116.836Z" transform="translate(-55.439 -20.345)" fill="#fff"/>
  </g>
</svg>
