<?xml version="1.0" encoding="utf-8"?>
<!-- Generator: Adobe Illustrator 23.0.3, SVG Export Plug-In . SVG Version: 6.00 Build 0)  -->
<svg version="1.1" id="Layer_1" xmlns="http://www.w3.org/2000/svg" xmlns:xlink="http://www.w3.org/1999/xlink" x="0px" y="0px"
	 viewBox="0 0 52.4 67" style="enable-background:new 0 0 52.4 67;" xml:space="preserve">
<style type="text/css">
	.st0{fill:#FFFFFF;}
</style>
<g id="Find_Us" transform="translate(1.73 1.5)">
	<g id="Group_1492">
		<g id="Path_983">
			<path class="st0" d="M24.5,65.5L24.5,65.5c-0.5,0-0.9-0.2-1.2-0.6L2.8,39.2c0,0-0.1-0.1-0.1-0.1C-2.5,31-2.9,21,1.5,12.5
				C5.8,4.2,13.8-1,23-1.5c1-0.1,2,0,3,0c9.2,0.5,17.2,5.7,21.5,14c4.4,8.6,4,18.5-1.2,26.6c0,0-0.1,0.1-0.1,0.1L25.6,64.9
				C25.4,65.3,24.9,65.5,24.5,65.5z M5.2,37.4l19.3,24.2l19.3-24.2c4.5-7.2,4.9-15.9,1-23.5C41,6.6,33.9,1.9,25.8,1.5
				c-0.9,0-1.8,0-2.7,0C15,1.9,8,6.6,4.2,13.9C0.3,21.4,0.6,30.2,5.2,37.4z"/>
		</g>
		<g id="Ellipse_353">
			<path class="st0" d="M24.5,36.3c-6.4,0-11.6-5.2-11.6-11.6c0-6.4,5.2-11.6,11.6-11.6S36,18.4,36,24.7
				C36,31.1,30.9,36.3,24.5,36.3z M24.5,16.2c-4.7,0-8.6,3.8-8.6,8.6c0,4.7,3.8,8.6,8.6,8.6s8.6-3.8,8.6-8.6
				C33,20,29.2,16.2,24.5,16.2z"/>
		</g>
	</g>
</g>
</svg>
