<svg xmlns="http://www.w3.org/2000/svg" width="34.999" height="35" viewBox="0 0 34.999 35">
  <g id="Karir" transform="translate(-431.817 -444.291)">
    <path id="Path_1319" data-name="Path 1319" d="M444.948,464.812a.791.791,0,0,0-.791-.791H433.4v-1.463a1.592,1.592,0,0,1,.841-1.253l5.426-2.342a.792.792,0,0,0,.478-.727V455.5a.791.791,0,0,0-.291-.613,5.33,5.33,0,0,1-1.769-4.141c0-2.689,1.672-4.877,3.728-4.877s3.728,2.188,3.728,4.877a5.329,5.329,0,0,1-1.769,4.141.791.791,0,0,0-.291.613v2.731a.792.792,0,0,0,.478.727l1.782.769a.791.791,0,0,0,.627-1.453l-1.3-.563v-1.853a7.026,7.026,0,0,0,2.06-5.113c0-3.562-2.383-6.459-5.311-6.459s-5.311,2.9-5.311,6.459a7.026,7.026,0,0,0,2.06,5.113v1.853l-4.962,2.142-.018.008a3.192,3.192,0,0,0-1.763,2.629c0,.014,0,.027,0,.041v2.277a.792.792,0,0,0,.792.792h11.548A.792.792,0,0,0,444.948,464.812Z" transform="translate(0 0)" fill="#fff"/>
    <path id="Path_1320" data-name="Path 1320" d="M481.056,489.09a9.979,9.979,0,0,0-8.857,14.59l-7.6,7.6a.791.791,0,0,0,1.119,1.119l7.346-7.345a10.075,10.075,0,0,0,2.014,2.014l-4.213,4.213a.791.791,0,0,0,1.119,1.119l4.468-4.468a9.984,9.984,0,1,0,4.6-18.842Zm0,18.388a8.4,8.4,0,1,1,8.4-8.4A8.412,8.412,0,0,1,481.056,507.478Z" transform="translate(-24.224 -33.341)" fill="#fff"/>
    <path id="Path_1321" data-name="Path 1321" d="M511.822,504.218a6.123,6.123,0,0,0-6.116,6.116.791.791,0,1,0,1.583,0,4.538,4.538,0,0,1,4.534-4.533.791.791,0,0,0,0-1.583Z" transform="translate(-54.991 -44.6)" fill="#fff"/>
  </g>
</svg>
