<svg id="Layer_1" data-name="Layer 1" xmlns="http://www.w3.org/2000/svg" viewBox="0 0 64 75"><defs><style>.cls-1{fill:#fff;}</style></defs><title>LOGIN</title><path class="cls-1" d="M64,37.75a9.8,9.8,0,0,0-9.37-9.46V20.58C54.63,9.23,44.38,0,31.79,0S8.94,9.23,8.94,20.58v7.74A9.87,9.87,0,0,0,0,37.82V65.51A9.83,9.83,0,0,0,9.76,75H53.9A9.79,9.79,0,0,0,64,65.45ZM31.79,3.62c10.6,0,19.22,7.61,19.22,17v7.69H12.56V20.58C12.56,11.23,21.19,3.62,31.79,3.62ZM54.14,71.38H10a6.23,6.23,0,0,1-6.37-5.93V37.88a6.22,6.22,0,0,1,6.24-6H54a6.18,6.18,0,0,1,6.37,5.93V65.39A6.22,6.22,0,0,1,54.14,71.38Z"/><path class="cls-1" d="M32,40.5a6.36,6.36,0,0,0-3.19,11.88v7.26a3.19,3.19,0,0,0,6.38,0V52.38A6.36,6.36,0,0,0,32,40.5Z"/></svg>