<svg id="Layer_1" data-name="Layer 1" xmlns="http://www.w3.org/2000/svg" viewBox="0 0 64 64"><defs><style>.cls-1{fill:#fff;}</style></defs><title>LOGIN HEADER</title><path class="cls-1" d="M55.58,25.58V21.06a23.73,23.73,0,0,0-47.16,0v4.52a6.62,6.62,0,0,0-5.84,6.34V57.58A6.64,6.64,0,0,0,9.42,64H54.61a6.64,6.64,0,0,0,6.82-6.42V31.92A6.62,6.62,0,0,0,55.58,25.58ZM30.23,8.1A15.51,15.51,0,0,1,32,8,15.71,15.71,0,0,1,47.58,21.56v4H16.42v-4A15.66,15.66,0,0,1,30.23,8.1Zm4.87,38v7.09h0a3.11,3.11,0,0,1-6.22,0V46.09a6.18,6.18,0,0,1-3.1-5.36,6.22,6.22,0,1,1,12.44,0A6.16,6.16,0,0,1,35.1,46.09Z"/></svg>