<svg xmlns="http://www.w3.org/2000/svg" width="38.534" height="35" viewBox="0 0 38.534 35">
  <g id="Octo" transform="translate(692.478 -1260.461)">
    <g id="Group_1874" data-name="Group 1874" transform="translate(-692.477 1260.461)">
      <path id="Path_1341" data-name="Path 1341" d="M-653.957,1290.167c-.336-1.66-2.723-.813-3.618-1.948a3.946,3.946,0,0,1-.7-1.895c-.451-3.034.5-6.153.411-9.214-.138-4.811-1.175-10.757-4.686-14.337-3.647-3.717-8.651-2.08-13.061-1.053-4.532,1.055-9.908.3-13.543,3.735-4.826,4.556-3.582,11.707-1.4,17.242a51.08,51.08,0,0,0,4.444,8.554c1.065,1.678,2.14,3.6,4.233,4.054,4.881,1.064,9.8-3.61,14.215-4.945a11.145,11.145,0,0,1,5.384-.1,36.72,36.72,0,0,0,4.8.548c.706.034,1.417.074,2.122.09.423.009,1.226.038,1.39-.478A.5.5,0,0,0-653.957,1290.167Zm-8.073-1.243a16.518,16.518,0,0,0-2.963-.3,10.4,10.4,0,0,0-3.055.438,28.186,28.186,0,0,0-5.04,2.339c-2.441,1.33-4.965,2.7-7.307,2.7a5.594,5.594,0,0,1-1.187-.125c-1.4-.3-2.251-1.666-3.157-3.107l-.22-.348a49.414,49.414,0,0,1-4.328-8.326c-1.935-4.9-3.321-11.616,1.066-15.758,2.2-2.079,5.251-2.4,8.479-2.745a36.722,36.722,0,0,0,4.44-.656c.379-.088.761-.181,1.147-.273a25.583,25.583,0,0,1,5.764-.951,6.389,6.389,0,0,1,4.875,1.906c1.839,1.875,4.078,5.726,4.3,13.426a26.414,26.414,0,0,1-.256,3.738,21.446,21.446,0,0,0-.141,5.637,5.3,5.3,0,0,0,.973,2.535,2.643,2.643,0,0,0,.318.338A35.642,35.642,0,0,1-662.029,1288.924Z" transform="translate(692.477 -1260.461)" fill="#fff"/>
    </g>
    <g id="Group_1884" data-name="Group 1884" transform="translate(-689.599 1267.365)">
      <g id="Group_1879" data-name="Group 1879" transform="translate(0)">
        <g id="Group_1875" data-name="Group 1875" transform="translate(0 4.346)">
          <path id="Path_1342" data-name="Path 1342" d="M-679.4,1311.25c-.012-.308,0-.767.022-1.37l.009-.431.14-.048c.064-.022.221-.067.462-.131.277-.065.528-.132.748-.2.164-.049.3-.09.393-.122.19.253.352.452.493.605.159.174.356.367.582.571s.38.355.475.432l.8.683,1.134-1.367-.789-.678c-.074-.057-.211-.177-.4-.354s-.36-.354-.489-.5a5.318,5.318,0,0,1-.46-.56,6.278,6.278,0,0,0-.832-.932,8.42,8.42,0,0,1-.72-.766c-.254-.312-.51-.621-.763-.919s-.495-.582-.723-.852c-.2-.239-.334-.412-.41-.514-.039-.089-.143-.109-.215-.123s-.145-.025-.24-.036l-.3-.03a1.258,1.258,0,0,0-.37.017,1.16,1.16,0,0,0-.319.11.5.5,0,0,0-.248.312.808.808,0,0,0,.011.432q.019.1.081.465a9.316,9.316,0,0,1,.095,1.049c.028.479.053,1.092.074,1.825s.019,1.4,0,1.99c-.026.634-.033,1.133-.021,1.479l.009.5.03.892,1.77-.055Zm.01-3.65c-.007-.225-.015-.437-.022-.637q.107.125.213.253c.074.092.152.183.231.271l-.234.068Z" transform="translate(681.439 -1303.607)" fill="#fff"/>
        </g>
        <g id="Group_1876" data-name="Group 1876" transform="translate(5.84)">
          <path id="Path_1343" data-name="Path 1343" d="M-657.87,1296.849a2.874,2.874,0,0,0,1.311.409,3.482,3.482,0,0,0,1.295-.152,5.864,5.864,0,0,0,.941-.417l.136.434,1.7-.512-.361-1.151c-.059-.2-.144-.478-.254-.823s-.272-.871-.518-1.676c-.1-.327-.208-.673-.321-1.036l1.148.58.413-.79.108-.221c.07-.129.187-.325.348-.581a.769.769,0,0,1,.231-.27,1.47,1.47,0,0,1,.43-.123.683.683,0,0,1,.341.045,2.286,2.286,0,0,1,.524.316c.034.028.068.059.1.093a2.945,2.945,0,0,0-.964.623,3.481,3.481,0,0,0-.829,1,2.228,2.228,0,0,0-.183,1.191,2.143,2.143,0,0,0,.538,1.275,1.79,1.79,0,0,0,1.143.579,3.062,3.062,0,0,0,1.251-.208,6.681,6.681,0,0,0,.828-.339l.111.322,1.682-.578-.59-1.716c-.083-.242-.169-.476-.254-.7s-.174-.45-.281-.733a7.061,7.061,0,0,0-.548-1.117,3.83,3.83,0,0,0-.91-1.082,4.1,4.1,0,0,0-.918-.572,2.344,2.344,0,0,0-1.238-.161,2.977,2.977,0,0,0-1.052.3,2.493,2.493,0,0,0-.908.891,7.241,7.241,0,0,0-.434.73l-.118.22-.18.356c-.089-.28-.181-.566-.276-.861-.3-.9-.5-1.557-.6-1.953l-.352-1.506-1.739.414.366,1.5c.1.446.318,1.156.637,2.11l0,.008a2.962,2.962,0,0,0-.487.053,2.675,2.675,0,0,0-1.378.843,3.864,3.864,0,0,0-.944,1.721,3.231,3.231,0,0,0,.049,1.936A2.507,2.507,0,0,0-657.87,1296.849Zm.672-2.818a2.132,2.132,0,0,1,.5-.924,1.265,1.265,0,0,1,.436-.337l.01,0a.529.529,0,0,1,.258-.008l.511.158.17.569c.193.638.342,1.121.451,1.471l-.288.159a3.878,3.878,0,0,1-.658.3,1.8,1.8,0,0,1-.626.069,1.044,1.044,0,0,1-.5-.148.858.858,0,0,1-.266-.424A1.446,1.446,0,0,1-657.2,1294.032Zm7.624-1.389.183,0q.1.25.178.449c.04.1.079.2.116.3l-.126.072a3.94,3.94,0,0,1-.692.292,1.664,1.664,0,0,1-.489.119.39.39,0,0,1-.033-.029.342.342,0,0,1-.059-.208.534.534,0,0,1,.014-.274,1.736,1.736,0,0,1,.411-.424,1.827,1.827,0,0,1,.332-.27C-649.662,1292.654-649.607,1292.646-649.574,1292.643Z" transform="translate(659.041 -1286.938)" fill="#fff"/>
        </g>
        <g id="Group_1877" data-name="Group 1877" transform="translate(0.9 9.008)">
          <path id="Path_1344" data-name="Path 1344" d="M-659.546,1321.485l-1.181.233a13.492,13.492,0,0,0-1.34.429,12.886,12.886,0,0,1-1.88.491c-.72.148-1.229.257-1.517.323l-1.25.323.274,1.112a3.223,3.223,0,0,0-.922-.567,2.211,2.211,0,0,0-1.472.024,2.887,2.887,0,0,0-1.334.891,4.36,4.36,0,0,0-.828,1.572,4.493,4.493,0,0,0-.227,1.094,3.71,3.71,0,0,0-.643-.77,7.211,7.211,0,0,0-1.127-.79,2.966,2.966,0,0,0-1.231-.385l-.033-.11-.491.126a1.5,1.5,0,0,0-.622.156,2.126,2.126,0,0,0-.532.279l-.409.2.049.07-.014.014a5.11,5.11,0,0,0-1.016,1.123,4.167,4.167,0,0,0-.634,1.668,4.285,4.285,0,0,0,.107,1.922,4.506,4.506,0,0,0,.884,1.689,3.213,3.213,0,0,0,1.895,1.027,3.805,3.805,0,0,0,1.63,0,2.893,2.893,0,0,0,.378-.117,4.365,4.365,0,0,0,1.435-.914,4.662,4.662,0,0,0,.9-1.246,3,3,0,0,0,.248-.671q.073.158.152.309a3.709,3.709,0,0,0,.983,1.209,3.49,3.49,0,0,0,1.012.625,2.967,2.967,0,0,0,1.1.152,2.712,2.712,0,0,0,.49-.07,3.723,3.723,0,0,0,.917-.365,3.159,3.159,0,0,0,1.052-.927,2.178,2.178,0,0,0,.4-1.4,4.077,4.077,0,0,0-.113-.879l-.307-1.026-1.707.51.3,1.014c.008.054.022.177.042.455a.468.468,0,0,1-.077.3,1.416,1.416,0,0,1-.482.395,1.394,1.394,0,0,1-.583.205,1.608,1.608,0,0,1-.423-.032,2.706,2.706,0,0,1-.508-.351,1.9,1.9,0,0,1-.519-.635,7.879,7.879,0,0,1-.428-1.03,7.566,7.566,0,0,1-.29-1.182,2.38,2.38,0,0,1,.117-1.091,2.723,2.723,0,0,1,.5-.966,1.047,1.047,0,0,1,.517-.354c.23-.079.3-.062.3-.059a1.411,1.411,0,0,1,.393.242.665.665,0,0,1,.207.262,3.652,3.652,0,0,1,.174.442l.323,1.079,1.707-.51-.323-1.079a4.724,4.724,0,0,0-.246-.626,2.305,2.305,0,0,0-.206-.382l.95-.234c.238-.062.7-.158,1.368-.285.016.07.036.159.059.267.083.309.191.768.323,1.371.147.621.359,1.378.63,2.252.26.84.435,1.422.516,1.727l.337,1.35,1.728-.443-.221-.861-.118-.491c-.092-.34-.274-.949-.541-1.809-.26-.838-.461-1.556-.6-2.135q-.209-.892-.337-1.416l-.055-.238c.152-.05.3-.1.445-.16a9.4,9.4,0,0,1,1.1-.344l1.177-.232Zm-15.168,10.4a1.505,1.505,0,0,1-.858-.448,2.554,2.554,0,0,1-.53-1.008,2.722,2.722,0,0,1-.074-1.145,2.68,2.68,0,0,1,.363-.985,3.356,3.356,0,0,1,.647-.723c.064-.045.12-.087.171-.127l.283-.157.022-.007.2-.047a.567.567,0,0,1,.1,0h.023a1,1,0,0,1,.509.159,4.124,4.124,0,0,1,.817.592,2.224,2.224,0,0,1,.573.857,3.614,3.614,0,0,1,.31,1.077,1.1,1.1,0,0,1-.128.623,2.934,2.934,0,0,1-.564.777,2.548,2.548,0,0,1-.83.518A1.921,1.921,0,0,1-674.713,1331.89Z" transform="translate(677.988 -1321.485)" fill="#fff"/>
        </g>
        <g id="Group_1878" data-name="Group 1878" transform="translate(19.757 7.235)">
          <path id="Path_1345" data-name="Path 1345" d="M-598.516,1317.482a4.209,4.209,0,0,0-1.03-1.509,7.213,7.213,0,0,0-1.127-.79,2.968,2.968,0,0,0-1.231-.386l-.033-.11-.491.125a1.515,1.515,0,0,0-.622.157,2.131,2.131,0,0,0-.532.279l-.409.2.049.071-.014.014a5.077,5.077,0,0,0-1.016,1.124,4.151,4.151,0,0,0-.634,1.667,4.283,4.283,0,0,0,.106,1.923,4.5,4.5,0,0,0,.884,1.689,3.214,3.214,0,0,0,1.895,1.027,3.817,3.817,0,0,0,1.63,0,2.741,2.741,0,0,0,.378-.117,4.371,4.371,0,0,0,1.435-.913,4.665,4.665,0,0,0,.9-1.246,2.873,2.873,0,0,0,.311-1.589A5.381,5.381,0,0,0-598.516,1317.482Zm-3.879,3.742a1.5,1.5,0,0,1-.858-.447,2.565,2.565,0,0,1-.53-1.008,2.727,2.727,0,0,1-.074-1.145,2.675,2.675,0,0,1,.363-.984,3.35,3.35,0,0,1,.648-.724c.063-.044.12-.087.17-.128l.284-.157.022-.006.2-.048a.626.626,0,0,1,.1,0h.023a.99.99,0,0,1,.509.159,4.144,4.144,0,0,1,.817.592,2.228,2.228,0,0,1,.573.858,3.619,3.619,0,0,1,.31,1.077,1.1,1.1,0,0,1-.127.622,2.948,2.948,0,0,1-.564.777,2.517,2.517,0,0,1-.83.517A1.914,1.914,0,0,1-602.395,1321.225Z" transform="translate(605.669 -1314.687)" fill="#fff"/>
        </g>
      </g>
      <g id="Group_1883" data-name="Group 1883" transform="translate(26.331 2.561)">
        <g id="Group_1882" data-name="Group 1882">
          <g id="Group_1880" data-name="Group 1880" transform="translate(0.064 0.063)">
            <path id="Path_1346" data-name="Path 1346" d="M-577.808,1307.4l1.756-.4.452,1.98-1.756.4Zm1.241-1.388-1.744.453-.235-.87-.12-.444q-.124-.461-.309-1.433t-.308-1.741q-.118-.752-.249-1.646-.124-.859-.207-1.22a3.287,3.287,0,0,0-.11-.482l-.365-1.04,1.7-.587.364,1.04a4.5,4.5,0,0,1,.179.7q.094.413.213,1.328.131.893.263,1.624.113.735.291,1.672.175.921.286,1.33Z" transform="translate(580.213 -1297.002)" fill="#fff"/>
          </g>
          <g id="Group_1881" data-name="Group 1881">
            <path id="Path_1347" data-name="Path 1347" d="M-575.72,1308.836l-1.853.424-.475-2.077,1.853-.424Zm-1.778.3,1.659-.38-.431-1.883-1.659.38Zm.812-3.273-1.841.478-.367-1.361c-.083-.31-.188-.793-.31-1.436s-.226-1.227-.308-1.744c-.078-.5-.162-1.052-.249-1.646-.082-.57-.152-.98-.206-1.217a3.4,3.4,0,0,0-.108-.477l-.381-1.087,1.789-.62.381,1.087a4.611,4.611,0,0,1,.181.709c.063.275.133.711.213,1.331.087.592.175,1.138.262,1.622s.174,1.054.291,1.672.211,1.053.285,1.326Zm-1.77.357,1.648-.428-.342-1.265c-.075-.275-.172-.723-.286-1.333s-.216-1.183-.292-1.674-.175-1.031-.263-1.625c-.079-.608-.15-1.054-.212-1.324a4.475,4.475,0,0,0-.177-.7l-.348-.994-1.6.554.348.993a3.423,3.423,0,0,1,.112.49c.054.237.124.649.207,1.222.087.593.171,1.147.249,1.645.081.516.185,1.1.307,1.74s.226,1.122.308,1.429Z" transform="translate(580.457 -1296.759)" fill="#fff"/>
          </g>
        </g>
      </g>
    </g>
    <g id="Group_1885" data-name="Group 1885" transform="translate(-683.384 1289.233)">
      <path id="Path_1348" data-name="Path 1348" d="M-654.207,1374.412a3.232,3.232,0,0,1-.637-.059c-1.578-.316-2.6-2.562-2.715-2.817a.521.521,0,0,1,.268-.686.522.522,0,0,1,.687.267c.228.518,1.078,2.036,1.965,2.213,1.422.284,3.837-.991,4.647-1.507a.522.522,0,0,1,.72.16.522.522,0,0,1-.16.72C-649.553,1372.78-652.144,1374.412-654.207,1374.412Z" transform="translate(657.603 -1370.806)" fill="#fff"/>
    </g>
    <g id="Group_1886" data-name="Group 1886" transform="translate(-669.441 1263.039)">
      <path id="Path_1349" data-name="Path 1349" d="M-598.542,1274.872a.521.521,0,0,1-.471-.3,7.961,7.961,0,0,0-1.582-2.225,4.49,4.49,0,0,0-2.963-.953.524.524,0,0,1-.569-.468.521.521,0,0,1,.466-.569,5.476,5.476,0,0,1,3.726,1.183,8.863,8.863,0,0,1,1.864,2.583.521.521,0,0,1-.246.695A.516.516,0,0,1-598.542,1274.872Z" transform="translate(604.13 -1270.347)" fill="#fff"/>
    </g>
    <g id="Group_1887" data-name="Group 1887" transform="translate(-671.925 1291.455)">
      <path id="Path_1350" data-name="Path 1350" d="M-613.132,1382.537a.521.521,0,0,1-.445-.248.522.522,0,0,1,.171-.718,27.351,27.351,0,0,1,4.509-2.214.522.522,0,0,1,.663.323.522.522,0,0,1-.322.663,26.681,26.681,0,0,0-4.3,2.116A.522.522,0,0,1-613.132,1382.537Z" transform="translate(613.654 -1379.329)" fill="#fff"/>
    </g>
  </g>
</svg>
