<svg xmlns="http://www.w3.org/2000/svg" width="53" height="53" viewBox="0 0 53 53">
  <g id="Group_2684" data-name="Group 2684" transform="translate(-516.777 -924.707)">
    <path id="Path_1707" data-name="Path 1707" d="M529.087,964.365h-3.806a.913.913,0,0,1-.912-.913V951.134a1.2,1.2,0,0,0-1.2-1.2h-3.084a.913.913,0,0,1-.912-.913v-8.955c0-.94.092-1.126,1.351-1.622.724-.285,2.837-1.107,4.866-1.9a6.58,6.58,0,0,0,7.992,0l.907.352a1.2,1.2,0,1,0,.868-2.234l-.08-.031a6.6,6.6,0,1,0-11.382,0c-1.753.681-3.42,1.331-4.049,1.577-1.818.715-2.871,1.575-2.871,3.853v8.955a3.313,3.313,0,0,0,3.309,3.31h1.886v11.119a3.313,3.313,0,0,0,3.309,3.31h3.806a1.2,1.2,0,0,0,0-2.4Zm.3-37.261a4.2,4.2,0,1,1-4.2,4.2A4.206,4.206,0,0,1,529.387,927.1Z" fill="#fff"/>
    <path id="Path_1708" data-name="Path 1708" d="M629.385,936.215c-.628-.247-2.3-.9-4.048-1.577a6.6,6.6,0,1,0-11.382,0l-.08.031a1.2,1.2,0,1,0,.869,2.234l.907-.352a6.58,6.58,0,0,0,7.992,0c2.029.789,4.142,1.611,4.866,1.9,1.26.5,1.351.682,1.351,1.622v8.955a.913.913,0,0,1-.913.913h-3.084a1.2,1.2,0,0,0-1.2,1.2v12.318a.913.913,0,0,1-.913.913h-3.806a1.2,1.2,0,0,0,0,2.4h3.806a3.313,3.313,0,0,0,3.31-3.31V952.333h1.885a3.313,3.313,0,0,0,3.31-3.31v-8.955C632.256,937.79,631.2,936.931,629.385,936.215Zm-13.94-4.911a4.2,4.2,0,1,1,4.2,4.2A4.206,4.206,0,0,1,615.445,931.3Z" transform="translate(-62.479)" fill="#fff"/>
    <path id="Path_1709" data-name="Path 1709" d="M578.7,967.4c-.628-.247-2.3-.9-4.048-1.577a6.6,6.6,0,1,0-11.382,0c-1.753.681-3.421,1.331-4.048,1.577-1.818.715-2.871,1.575-2.871,3.853v8.955a3.313,3.313,0,0,0,3.31,3.31h1.885v11.12a3.313,3.313,0,0,0,3.31,3.309h8.211a3.313,3.313,0,0,0,3.31-3.309v-11.12h1.886a3.313,3.313,0,0,0,3.309-3.31v-8.955C581.568,968.973,580.516,968.114,578.7,967.4Zm-9.739-9.111a4.2,4.2,0,1,1-4.2,4.2A4.206,4.206,0,0,1,568.958,958.287Zm10.213,21.919a.913.913,0,0,1-.912.913h-3.084a1.2,1.2,0,0,0-1.2,1.2v12.319a.913.913,0,0,1-.913.912h-8.211a.914.914,0,0,1-.913-.912V982.317a1.2,1.2,0,0,0-1.2-1.2h-3.084a.914.914,0,0,1-.913-.913v-8.955c0-.94.092-1.127,1.351-1.622.724-.285,2.837-1.107,4.866-1.9a6.58,6.58,0,0,0,7.992,0c2.029.789,4.142,1.611,4.866,1.9,1.259.5,1.351.682,1.351,1.622Z" transform="translate(-25.681 -20.238)" fill="#fff"/>
  </g>
</svg>
